<?xml version="1.0" encoding="utf-8"?>
<!-- Generator: Adobe Illustrator 25.0.1, SVG Export Plug-In . SVG Version: 6.00 Build 0)  -->
<svg version="1.0" id="Layer_1" xmlns="http://www.w3.org/2000/svg"  x="0px" y="0px"
	 width="16px" height="16px" viewBox="0 0 16 16" enable-background="new 0 0 16 16" xml:space="preserve">
<g id="Page-1">
	
		<linearGradient id="Tabnine-logo-symbol_1_" gradientUnits="userSpaceOnUse" x1="-923.0869" y1="535.178" x2="-923.4004" y2="535.4977" gradientTransform="matrix(34.4444 0 0 -39.4117 31808.334 21106.2676)">
		<stop  offset="0" style="stop-color:#4BA1FC"/>
		<stop  offset="1" style="stop-color:#EC2AED"/>
	</linearGradient>
	<path id="Tabnine-logo-symbol" fill="url(#Tabnine-logo-symbol_1_)" d="M8.2,0.6L8.2,0.6l6.1,3.5c0.1,0.1,0.2,0.2,0.2,0.3l0,0.1v7
		c0,0.1-0.1,0.3-0.2,0.3l0,0l-6.1,3.5c-0.1,0.1-0.3,0.1-0.4,0l-0.1,0l-6.1-3.5c-0.1-0.1-0.2-0.2-0.2-0.3l0-0.1v-7
		c0-0.1,0.1-0.3,0.2-0.3l0,0l6.1-3.5C7.9,0.6,8,0.6,8.2,0.6L8.2,0.6z M13.6,8.8l-7.8,4.5L8,14.5l5.6-3.2V8.8z M5.4,3.5l0,8.9L13.2,8
		L5.4,3.5z M4.5,3.5L2.4,4.8v6.5l2.1,1.2L4.5,3.5z M8,1.5L5.8,2.8l7.8,4.5V4.8L8,1.5z"/>
</g>
</svg>
