<?xml version="1.0" encoding="utf-8"?>
<!-- Generator: Adobe Illustrator 25.0.1, SVG Export Plug-In . SVG Version: 6.00 Build 0)  -->
<svg version="1.0" id="Layer_1" xmlns="http://www.w3.org/2000/svg" xmlns:xlink="http://www.w3.org/1999/xlink" x="0px" y="0px"
	 width="100px" height="100px" viewBox="0 0 100 100" enable-background="new 0 0 100 100" xml:space="preserve">
<g id="Page-1">
	
		<linearGradient id="Tabnine-logo-symbol_1_" gradientUnits="userSpaceOnUse" x1="-880.2321" y1="576.3723" x2="-882.2127" y2="578.3916" gradientTransform="matrix(34.4444 0 0 -39.4117 30401.4453 22803.5625)">
		<stop  offset="0" style="stop-color:#4BA1FC"/>
		<stop  offset="1" style="stop-color:#EC2AED"/>
	</linearGradient>
	<path id="Tabnine-logo-symbol" fill="url(#Tabnine-logo-symbol_1_)" d="M51,3.2l0.4,0.2l38.3,22.1c0.8,0.4,1.3,1.2,1.4,2l0,0.4
		v44.2c0,0.9-0.4,1.7-1.1,2.2l-0.3,0.2L51.4,96.6c-0.7,0.4-1.6,0.5-2.4,0.2l-0.4-0.2L10.4,74.5c-0.8-0.4-1.3-1.2-1.4-2l0-0.4V27.9
		c0-0.9,0.4-1.7,1.1-2.2l0.3-0.2L48.6,3.4c0.6-0.4,1.3-0.5,2-0.3L51,3.2z M85.5,54.8l-49,28.3L50,91l35.5-20.5V54.8z M33.5,21.8
		l0.2,56.5l49-28.3L33.5,21.8z M27.9,21.8l-13.4,7.7v41l13.5,7.8L27.9,21.8z M50,9L36.2,17l49.2,28.2V29.5L50,9z"/>
</g>
</svg>
